<svg width="196" height="196" viewBox="0 0 196 196" fill="none" xmlns="http://www.w3.org/2000/svg">
<path d="M4 2C4 3.10457 3.10457 4 2 4C0.89543 4 0 3.10457 0 2C0 0.89543 0.89543 0 2 0C3.10457 0 4 0.89543 4 2Z" fill="#2E2E2E"/>
<path d="M4 26C4 27.1046 3.10457 28 2 28C0.89543 28 0 27.1046 0 26C0 24.8954 0.89543 24 2 24C3.10457 24 4 24.8954 4 26Z" fill="#2E2E2E"/>
<path d="M4 50C4 51.1046 3.10457 52 2 52C0.89543 52 0 51.1046 0 50C0 48.8954 0.89543 48 2 48C3.10457 48 4 48.8954 4 50Z" fill="#2E2E2E"/>
<path d="M4 74C4 75.1046 3.10457 76 2 76C0.89543 76 0 75.1046 0 74C0 72.8954 0.89543 72 2 72C3.10457 72 4 72.8954 4 74Z" fill="#2E2E2E"/>
<path d="M4 98C4 99.1046 3.10457 100 2 100C0.89543 100 0 99.1046 0 98C0 96.8954 0.89543 96 2 96C3.10457 96 4 96.8954 4 98Z" fill="#2E2E2E"/>
<path d="M4 122C4 123.105 3.10457 124 2 124C0.89543 124 0 123.105 0 122C0 120.895 0.89543 120 2 120C3.10457 120 4 120.895 4 122Z" fill="#2E2E2E"/>
<path d="M4 146C4 147.105 3.10457 148 2 148C0.89543 148 0 147.105 0 146C0 144.895 0.89543 144 2 144C3.10457 144 4 144.895 4 146Z" fill="#2E2E2E"/>
<path d="M4 170C4 171.105 3.10457 172 2 172C0.89543 172 0 171.105 0 170C0 168.895 0.89543 168 2 168C3.10457 168 4 168.895 4 170Z" fill="#2E2E2E"/>
<path d="M4 194C4 195.105 3.10457 196 2 196C0.89543 196 0 195.105 0 194C0 192.895 0.89543 192 2 192C3.10457 192 4 192.895 4 194Z" fill="#2E2E2E"/>
<path d="M28 2C28 3.10457 27.1046 4 26 4C24.8954 4 24 3.10457 24 2C24 0.89543 24.8954 0 26 0C27.1046 0 28 0.89543 28 2Z" fill="#2E2E2E"/>
<path d="M28 26C28 27.1046 27.1046 28 26 28C24.8954 28 24 27.1046 24 26C24 24.8954 24.8954 24 26 24C27.1046 24 28 24.8954 28 26Z" fill="#2E2E2E"/>
<path d="M28 74C28 75.1046 27.1046 76 26 76C24.8954 76 24 75.1046 24 74C24 72.8954 24.8954 72 26 72C27.1046 72 28 72.8954 28 74Z" fill="#2E2E2E"/>
<path d="M28 98C28 99.1046 27.1046 100 26 100C24.8954 100 24 99.1046 24 98C24 96.8954 24.8954 96 26 96C27.1046 96 28 96.8954 28 98Z" fill="#2E2E2E"/>
<path d="M28 122C28 123.105 27.1046 124 26 124C24.8954 124 24 123.105 24 122C24 120.895 24.8954 120 26 120C27.1046 120 28 120.895 28 122Z" fill="#2E2E2E"/>
<path d="M28 146C28 147.105 27.1046 148 26 148C24.8954 148 24 147.105 24 146C24 144.895 24.8954 144 26 144C27.1046 144 28 144.895 28 146Z" fill="#2E2E2E"/>
<path d="M28 170C28 171.105 27.1046 172 26 172C24.8954 172 24 171.105 24 170C24 168.895 24.8954 168 26 168C27.1046 168 28 168.895 28 170Z" fill="#2E2E2E"/>
<path d="M28 194C28 195.105 27.1046 196 26 196C24.8954 196 24 195.105 24 194C24 192.895 24.8954 192 26 192C27.1046 192 28 192.895 28 194Z" fill="#2E2E2E"/>
<path d="M28 50C28 51.1046 27.1046 52 26 52C24.8954 52 24 51.1046 24 50C24 48.8954 24.8954 48 26 48C27.1046 48 28 48.8954 28 50Z" fill="#2E2E2E"/>
<path d="M52 2C52 3.10457 51.1046 4 50 4C48.8954 4 48 3.10457 48 2C48 0.89543 48.8954 0 50 0C51.1046 0 52 0.89543 52 2Z" fill="#2E2E2E"/>
<path d="M52 74C52 75.1046 51.1046 76 50 76C48.8954 76 48 75.1046 48 74C48 72.8954 48.8954 72 50 72C51.1046 72 52 72.8954 52 74Z" fill="#2E2E2E"/>
<path d="M52 98C52 99.1046 51.1046 100 50 100C48.8954 100 48 99.1046 48 98C48 96.8954 48.8954 96 50 96C51.1046 96 52 96.8954 52 98Z" fill="#2E2E2E"/>
<path d="M52 122C52 123.105 51.1046 124 50 124C48.8954 124 48 123.105 48 122C48 120.895 48.8954 120 50 120C51.1046 120 52 120.895 52 122Z" fill="#2E2E2E"/>
<path d="M52 146C52 147.105 51.1046 148 50 148C48.8954 148 48 147.105 48 146C48 144.895 48.8954 144 50 144C51.1046 144 52 144.895 52 146Z" fill="#2E2E2E"/>
<path d="M52 170C52 171.105 51.1046 172 50 172C48.8954 172 48 171.105 48 170C48 168.895 48.8954 168 50 168C51.1046 168 52 168.895 52 170Z" fill="#2E2E2E"/>
<path d="M52 194C52 195.105 51.1046 196 50 196C48.8954 196 48 195.105 48 194C48 192.895 48.8954 192 50 192C51.1046 192 52 192.895 52 194Z" fill="#2E2E2E"/>
<path d="M52 26C52 27.1046 51.1046 28 50 28C48.8954 28 48 27.1046 48 26C48 24.8954 48.8954 24 50 24C51.1046 24 52 24.8954 52 26Z" fill="#2E2E2E"/>
<path d="M52 50C52 51.1046 51.1046 52 50 52C48.8954 52 48 51.1046 48 50C48 48.8954 48.8954 48 50 48C51.1046 48 52 48.8954 52 50Z" fill="#2E2E2E"/>
<path d="M76 74C76 75.1046 75.1046 76 74 76C72.8954 76 72 75.1046 72 74C72 72.8954 72.8954 72 74 72C75.1046 72 76 72.8954 76 74Z" fill="#2E2E2E"/>
<path d="M76 98C76 99.1046 75.1046 100 74 100C72.8954 100 72 99.1046 72 98C72 96.8954 72.8954 96 74 96C75.1046 96 76 96.8954 76 98Z" fill="#2E2E2E"/>
<path d="M76 122C76 123.105 75.1046 124 74 124C72.8954 124 72 123.105 72 122C72 120.895 72.8954 120 74 120C75.1046 120 76 120.895 76 122Z" fill="#2E2E2E"/>
<path d="M76 146C76 147.105 75.1046 148 74 148C72.8954 148 72 147.105 72 146C72 144.895 72.8954 144 74 144C75.1046 144 76 144.895 76 146Z" fill="#2E2E2E"/>
<path d="M76 170C76 171.105 75.1046 172 74 172C72.8954 172 72 171.105 72 170C72 168.895 72.8954 168 74 168C75.1046 168 76 168.895 76 170Z" fill="#2E2E2E"/>
<path d="M76 194C76 195.105 75.1046 196 74 196C72.8954 196 72 195.105 72 194C72 192.895 72.8954 192 74 192C75.1046 192 76 192.895 76 194Z" fill="#2E2E2E"/>
<path d="M76 2C76 3.10457 75.1046 4 74 4C72.8954 4 72 3.10457 72 2C72 0.89543 72.8954 0 74 0C75.1046 0 76 0.89543 76 2Z" fill="#2E2E2E"/>
<path d="M76 26C76 27.1046 75.1046 28 74 28C72.8954 28 72 27.1046 72 26C72 24.8954 72.8954 24 74 24C75.1046 24 76 24.8954 76 26Z" fill="#2E2E2E"/>
<path d="M76 50C76 51.1046 75.1046 52 74 52C72.8954 52 72 51.1046 72 50C72 48.8954 72.8954 48 74 48C75.1046 48 76 48.8954 76 50Z" fill="#2E2E2E"/>
<path d="M100 74C100 75.1046 99.1046 76 98 76C96.8954 76 96 75.1046 96 74C96 72.8954 96.8954 72 98 72C99.1046 72 100 72.8954 100 74Z" fill="#2E2E2E"/>
<path d="M100 98C100 99.1046 99.1046 100 98 100C96.8954 100 96 99.1046 96 98C96 96.8954 96.8954 96 98 96C99.1046 96 100 96.8954 100 98Z" fill="#2E2E2E"/>
<path d="M100 122C100 123.105 99.1046 124 98 124C96.8954 124 96 123.105 96 122C96 120.895 96.8954 120 98 120C99.1046 120 100 120.895 100 122Z" fill="#2E2E2E"/>
<path d="M100 146C100 147.105 99.1046 148 98 148C96.8954 148 96 147.105 96 146C96 144.895 96.8954 144 98 144C99.1046 144 100 144.895 100 146Z" fill="#2E2E2E"/>
<path d="M100 170C100 171.105 99.1046 172 98 172C96.8954 172 96 171.105 96 170C96 168.895 96.8954 168 98 168C99.1046 168 100 168.895 100 170Z" fill="#2E2E2E"/>
<path d="M100 194C100 195.105 99.1046 196 98 196C96.8954 196 96 195.105 96 194C96 192.895 96.8954 192 98 192C99.1046 192 100 192.895 100 194Z" fill="#2E2E2E"/>
<path d="M100 2C100 3.10457 99.1046 4 98 4C96.8954 4 96 3.10457 96 2C96 0.89543 96.8954 0 98 0C99.1046 0 100 0.89543 100 2Z" fill="#2E2E2E"/>
<path d="M100 26C100 27.1046 99.1046 28 98 28C96.8954 28 96 27.1046 96 26C96 24.8954 96.8954 24 98 24C99.1046 24 100 24.8954 100 26Z" fill="#2E2E2E"/>
<path d="M124 74C124 75.1046 123.105 76 122 76C120.895 76 120 75.1046 120 74C120 72.8954 120.895 72 122 72C123.105 72 124 72.8954 124 74Z" fill="#2E2E2E"/>
<path d="M124 98C124 99.1046 123.105 100 122 100C120.895 100 120 99.1046 120 98C120 96.8954 120.895 96 122 96C123.105 96 124 96.8954 124 98Z" fill="#2E2E2E"/>
<path d="M124 122C124 123.105 123.105 124 122 124C120.895 124 120 123.105 120 122C120 120.895 120.895 120 122 120C123.105 120 124 120.895 124 122Z" fill="#2E2E2E"/>
<path d="M124 146C124 147.105 123.105 148 122 148C120.895 148 120 147.105 120 146C120 144.895 120.895 144 122 144C123.105 144 124 144.895 124 146Z" fill="#2E2E2E"/>
<path d="M124 170C124 171.105 123.105 172 122 172C120.895 172 120 171.105 120 170C120 168.895 120.895 168 122 168C123.105 168 124 168.895 124 170Z" fill="#2E2E2E"/>
<path d="M124 194C124 195.105 123.105 196 122 196C120.895 196 120 195.105 120 194C120 192.895 120.895 192 122 192C123.105 192 124 192.895 124 194Z" fill="#2E2E2E"/>
<path d="M100 50C100 51.1046 99.1046 52 98 52C96.8954 52 96 51.1046 96 50C96 48.8954 96.8954 48 98 48C99.1046 48 100 48.8954 100 50Z" fill="#2E2E2E"/>
<path d="M124 2C124 3.10457 123.105 4 122 4C120.895 4 120 3.10457 120 2C120 0.89543 120.895 0 122 0C123.105 0 124 0.89543 124 2Z" fill="#2E2E2E"/>
<path d="M148 74C148 75.1046 147.105 76 146 76C144.895 76 144 75.1046 144 74C144 72.8954 144.895 72 146 72C147.105 72 148 72.8954 148 74Z" fill="#2E2E2E"/>
<path d="M148 98C148 99.1046 147.105 100 146 100C144.895 100 144 99.1046 144 98C144 96.8954 144.895 96 146 96C147.105 96 148 96.8954 148 98Z" fill="#2E2E2E"/>
<path d="M148 122C148 123.105 147.105 124 146 124C144.895 124 144 123.105 144 122C144 120.895 144.895 120 146 120C147.105 120 148 120.895 148 122Z" fill="#2E2E2E"/>
<path d="M148 146C148 147.105 147.105 148 146 148C144.895 148 144 147.105 144 146C144 144.895 144.895 144 146 144C147.105 144 148 144.895 148 146Z" fill="#2E2E2E"/>
<path d="M148 170C148 171.105 147.105 172 146 172C144.895 172 144 171.105 144 170C144 168.895 144.895 168 146 168C147.105 168 148 168.895 148 170Z" fill="#2E2E2E"/>
<path d="M148 194C148 195.105 147.105 196 146 196C144.895 196 144 195.105 144 194C144 192.895 144.895 192 146 192C147.105 192 148 192.895 148 194Z" fill="#2E2E2E"/>
<path d="M124 26C124 27.1046 123.105 28 122 28C120.895 28 120 27.1046 120 26C120 24.8954 120.895 24 122 24C123.105 24 124 24.8954 124 26Z" fill="#2E2E2E"/>
<path d="M124 50C124 51.1046 123.105 52 122 52C120.895 52 120 51.1046 120 50C120 48.8954 120.895 48 122 48C123.105 48 124 48.8954 124 50Z" fill="#2E2E2E"/>
<path d="M172 74C172 75.1046 171.105 76 170 76C168.895 76 168 75.1046 168 74C168 72.8954 168.895 72 170 72C171.105 72 172 72.8954 172 74Z" fill="#2E2E2E"/>
<path d="M172 98C172 99.1046 171.105 100 170 100C168.895 100 168 99.1046 168 98C168 96.8954 168.895 96 170 96C171.105 96 172 96.8954 172 98Z" fill="#2E2E2E"/>
<path d="M172 122C172 123.105 171.105 124 170 124C168.895 124 168 123.105 168 122C168 120.895 168.895 120 170 120C171.105 120 172 120.895 172 122Z" fill="#2E2E2E"/>
<path d="M172 146C172 147.105 171.105 148 170 148C168.895 148 168 147.105 168 146C168 144.895 168.895 144 170 144C171.105 144 172 144.895 172 146Z" fill="#2E2E2E"/>
<path d="M172 170C172 171.105 171.105 172 170 172C168.895 172 168 171.105 168 170C168 168.895 168.895 168 170 168C171.105 168 172 168.895 172 170Z" fill="#2E2E2E"/>
<path d="M172 194C172 195.105 171.105 196 170 196C168.895 196 168 195.105 168 194C168 192.895 168.895 192 170 192C171.105 192 172 192.895 172 194Z" fill="#2E2E2E"/>
<path d="M148 2C148 3.10457 147.105 4 146 4C144.895 4 144 3.10457 144 2C144 0.89543 144.895 0 146 0C147.105 0 148 0.89543 148 2Z" fill="#2E2E2E"/>
<path d="M148 26C148 27.1046 147.105 28 146 28C144.895 28 144 27.1046 144 26C144 24.8954 144.895 24 146 24C147.105 24 148 24.8954 148 26Z" fill="#2E2E2E"/>
<path d="M148 50C148 51.1046 147.105 52 146 52C144.895 52 144 51.1046 144 50C144 48.8954 144.895 48 146 48C147.105 48 148 48.8954 148 50Z" fill="#2E2E2E"/>
<path d="M196 74C196 75.1046 195.105 76 194 76C192.895 76 192 75.1046 192 74C192 72.8954 192.895 72 194 72C195.105 72 196 72.8954 196 74Z" fill="#2E2E2E"/>
<path d="M196 98C196 99.1046 195.105 100 194 100C192.895 100 192 99.1046 192 98C192 96.8954 192.895 96 194 96C195.105 96 196 96.8954 196 98Z" fill="#2E2E2E"/>
<path d="M196 122C196 123.105 195.105 124 194 124C192.895 124 192 123.105 192 122C192 120.895 192.895 120 194 120C195.105 120 196 120.895 196 122Z" fill="#2E2E2E"/>
<path d="M196 146C196 147.105 195.105 148 194 148C192.895 148 192 147.105 192 146C192 144.895 192.895 144 194 144C195.105 144 196 144.895 196 146Z" fill="#2E2E2E"/>
<path d="M196 170C196 171.105 195.105 172 194 172C192.895 172 192 171.105 192 170C192 168.895 192.895 168 194 168C195.105 168 196 168.895 196 170Z" fill="#2E2E2E"/>
<path d="M196 194C196 195.105 195.105 196 194 196C192.895 196 192 195.105 192 194C192 192.895 192.895 192 194 192C195.105 192 196 192.895 196 194Z" fill="#2E2E2E"/>
<path d="M172 2C172 3.10457 171.105 4 170 4C168.895 4 168 3.10457 168 2C168 0.89543 168.895 0 170 0C171.105 0 172 0.89543 172 2Z" fill="#2E2E2E"/>
<path d="M172 26C172 27.1046 171.105 28 170 28C168.895 28 168 27.1046 168 26C168 24.8954 168.895 24 170 24C171.105 24 172 24.8954 172 26Z" fill="#2E2E2E"/>
<path d="M172 50C172 51.1046 171.105 52 170 52C168.895 52 168 51.1046 168 50C168 48.8954 168.895 48 170 48C171.105 48 172 48.8954 172 50Z" fill="#2E2E2E"/>
<path d="M196 2C196 3.10457 195.105 4 194 4C192.895 4 192 3.10457 192 2C192 0.89543 192.895 0 194 0C195.105 0 196 0.89543 196 2Z" fill="#2E2E2E"/>
<path d="M196 26C196 27.1046 195.105 28 194 28C192.895 28 192 27.1046 192 26C192 24.8954 192.895 24 194 24C195.105 24 196 24.8954 196 26Z" fill="#2E2E2E"/>
<path d="M196 50C196 51.1046 195.105 52 194 52C192.895 52 192 51.1046 192 50C192 48.8954 192.895 48 194 48C195.105 48 196 48.8954 196 50Z" fill="#2E2E2E"/>
</svg>
