<svg width="147" height="76" viewBox="0 0 147 76" fill="none" xmlns="http://www.w3.org/2000/svg">
<path d="M19 45.65C18.7 45.35 18.55 44.9875 18.55 44.5625C18.55 44.1375 18.7 43.7833 19 43.5L23 39.5H7C6.575 39.5 6.21875 39.3554 5.93125 39.0663C5.64375 38.7771 5.5 38.4187 5.5 37.9913C5.5 37.5638 5.64375 37.2083 5.93125 36.925C6.21875 36.6417 6.575 36.5 7 36.5H22.9L18.85 32.45C18.5833 32.1833 18.45 31.8426 18.45 31.4277C18.45 31.0127 18.6036 30.6544 18.9107 30.3527C19.1923 30.0509 19.5442 29.9 19.9665 29.9C20.3888 29.9 20.75 30.05 21.05 30.35L27.7 37C27.8667 37.1667 27.9833 37.3356 28.05 37.5067C28.1167 37.6778 28.15 37.8611 28.15 38.0567C28.15 38.2522 28.1167 38.4333 28.05 38.6C27.9833 38.7667 27.8667 38.9333 27.7 39.1L21.1 45.7C20.8333 45.9667 20.4917 46.1 20.075 46.1C19.6583 46.1 19.3 45.95 19 45.65ZM25.45 56C25.025 56 24.6688 55.8554 24.3813 55.5662C24.0938 55.2771 23.95 54.9187 23.95 54.4913C23.95 54.0638 24.0938 53.7083 24.3813 53.425C24.6688 53.1417 25.025 53 25.45 53H38.5V23H25.45C25.025 23 24.6688 22.8554 24.3813 22.5663C24.0938 22.2771 23.95 21.9187 23.95 21.4912C23.95 21.0637 24.0938 20.7083 24.3813 20.425C24.6688 20.1417 25.025 20 25.45 20H38.5C39.3 20 40 20.3 40.6 20.9C41.2 21.5 41.5 22.2 41.5 23V53C41.5 53.8 41.2 54.5 40.6 55.1C40 55.7 39.3 56 38.5 56H25.45Z" fill="white"/>
<path d="M67.548 25.32V49H63.9V25.32H67.548ZM79.9855 49.288C78.3215 49.288 76.8175 48.9147 75.4735 48.168C74.1295 47.4 73.0735 46.3333 72.3055 44.968C71.5375 43.5813 71.1535 41.9813 71.1535 40.168C71.1535 38.376 71.5482 36.7867 72.3375 35.4C73.1268 34.0133 74.2042 32.9467 75.5695 32.2C76.9348 31.4533 78.4602 31.08 80.1455 31.08C81.8308 31.08 83.3562 31.4533 84.7215 32.2C86.0868 32.9467 87.1642 34.0133 87.9535 35.4C88.7428 36.7867 89.1375 38.376 89.1375 40.168C89.1375 41.96 88.7322 43.5493 87.9215 44.936C87.1108 46.3227 86.0015 47.4 84.5935 48.168C83.2068 48.9147 81.6708 49.288 79.9855 49.288ZM79.9855 46.12C80.9242 46.12 81.7988 45.896 82.6095 45.448C83.4415 45 84.1135 44.328 84.6255 43.432C85.1375 42.536 85.3935 41.448 85.3935 40.168C85.3935 38.888 85.1482 37.8107 84.6575 36.936C84.1668 36.04 83.5162 35.368 82.7055 34.92C81.8948 34.472 81.0202 34.248 80.0815 34.248C79.1428 34.248 78.2682 34.472 77.4575 34.92C76.6682 35.368 76.0388 36.04 75.5695 36.936C75.1002 37.8107 74.8655 38.888 74.8655 40.168C74.8655 42.0667 75.3455 43.5387 76.3055 44.584C77.2868 45.608 78.5135 46.12 79.9855 46.12ZM99.8478 31.08C101.213 31.08 102.418 31.3573 103.464 31.912C104.53 32.4453 105.362 33.1173 105.96 33.928V31.368H109.64V49.288C109.64 50.9093 109.298 52.3493 108.616 53.608C107.933 54.888 106.941 55.8907 105.64 56.616C104.36 57.3413 102.824 57.704 101.032 57.704C98.6424 57.704 96.6584 57.1387 95.0798 56.008C93.5011 54.8987 92.6051 53.384 92.3918 51.464H96.0078C96.2851 52.3813 96.8718 53.1173 97.7678 53.672C98.6851 54.248 99.7731 54.536 101.032 54.536C102.504 54.536 103.688 54.088 104.584 53.192C105.501 52.296 105.96 50.9947 105.96 49.288V46.344C105.341 47.176 104.498 47.88 103.432 48.456C102.386 49.0107 101.192 49.288 99.8478 49.288C98.3118 49.288 96.9038 48.904 95.6238 48.136C94.3651 47.3467 93.3624 46.2587 92.6158 44.872C91.8904 43.464 91.5278 41.8747 91.5278 40.104C91.5278 38.3333 91.8904 36.7653 92.6158 35.4C93.3624 34.0347 94.3651 32.9787 95.6238 32.232C96.9038 31.464 98.3118 31.08 99.8478 31.08ZM105.96 40.168C105.96 38.952 105.704 37.896 105.192 37C104.701 36.104 104.05 35.4213 103.24 34.952C102.429 34.4827 101.554 34.248 100.616 34.248C99.6771 34.248 98.8024 34.4827 97.9918 34.952C97.1811 35.4 96.5198 36.072 96.0078 36.968C95.5171 37.8427 95.2718 38.888 95.2718 40.104C95.2718 41.32 95.5171 42.3867 96.0078 43.304C96.5198 44.2213 97.1811 44.9253 97.9918 45.416C98.8238 45.8853 99.6984 46.12 100.616 46.12C101.554 46.12 102.429 45.8853 103.24 45.416C104.05 44.9467 104.701 44.264 105.192 43.368C105.704 42.4507 105.96 41.384 105.96 40.168ZM116.287 29.032C115.626 29.032 115.071 28.808 114.623 28.36C114.175 27.912 113.951 27.3573 113.951 26.696C113.951 26.0347 114.175 25.48 114.623 25.032C115.071 24.584 115.626 24.36 116.287 24.36C116.927 24.36 117.471 24.584 117.919 25.032C118.367 25.48 118.591 26.0347 118.591 26.696C118.591 27.3573 118.367 27.912 117.919 28.36C117.471 28.808 116.927 29.032 116.287 29.032ZM118.079 31.368V49H114.431V31.368H118.079ZM131.765 31.08C133.151 31.08 134.389 31.368 135.477 31.944C136.586 32.52 137.45 33.3733 138.069 34.504C138.687 35.6347 138.997 37 138.997 38.6V49H135.381V39.144C135.381 37.5653 134.986 36.36 134.197 35.528C133.407 34.6747 132.33 34.248 130.965 34.248C129.599 34.248 128.511 34.6747 127.701 35.528C126.911 36.36 126.517 37.5653 126.517 39.144V49H122.869V31.368H126.517V33.384C127.114 32.6587 127.871 32.0933 128.789 31.688C129.727 31.2827 130.719 31.08 131.765 31.08Z" fill="white"/>
</svg>
