<svg width="377" height="104" viewBox="0 0 377 104" fill="none" xmlns="http://www.w3.org/2000/svg">
<mask id="mask0_96_184" style="mask-type:alpha" maskUnits="userSpaceOnUse" x="10" y="10" width="84" height="84">
<rect x="10" y="10" width="84" height="84" fill="#FF2000"/>
</mask>
<g mask="url(#mask0_96_184)">
<path d="M41.5003 79.9999C40.3919 79.9999 39.4003 79.6791 38.5253 79.0374C37.6503 78.3958 37.0086 77.5791 36.6003 76.5874L28.5503 55.4999H13.5003V48.4999H33.4503L41.5003 69.8499L57.6003 27.4124C58.0086 26.4208 58.6503 25.6041 59.5253 24.9624C60.4003 24.3208 61.3919 23.9999 62.5003 23.9999C63.6086 23.9999 64.6003 24.3208 65.4753 24.9624C66.3503 25.6041 66.9919 26.4208 67.4003 27.4124L75.4503 48.4999H90.5003V55.4999H70.5503L62.5003 34.1499L46.4003 76.5874C45.9919 77.5791 45.3503 78.3958 44.4753 79.0374C43.6003 79.6791 42.6086 79.9999 41.5003 79.9999Z" fill="#FF2000"/>
</g>
<path d="M150.48 32.912V72H142.64V46.576L132.168 72H126.232L115.704 46.576V72H107.864V32.912H116.768L129.2 61.976L141.632 32.912H150.48ZM172.847 72.504C169.861 72.504 167.173 71.8507 164.783 70.544C162.394 69.2 160.509 67.3147 159.127 64.888C157.783 62.4613 157.111 59.6613 157.111 56.488C157.111 53.3147 157.802 50.5147 159.183 48.088C160.602 45.6613 162.525 43.7947 164.951 42.488C167.378 41.144 170.085 40.472 173.071 40.472C176.058 40.472 178.765 41.144 181.191 42.488C183.618 43.7947 185.522 45.6613 186.903 48.088C188.322 50.5147 189.031 53.3147 189.031 56.488C189.031 59.6613 188.303 62.4613 186.847 64.888C185.429 67.3147 183.487 69.2 181.023 70.544C178.597 71.8507 175.871 72.504 172.847 72.504ZM172.847 65.672C174.266 65.672 175.591 65.336 176.823 64.664C178.093 63.9547 179.101 62.9093 179.847 61.528C180.594 60.1467 180.967 58.4667 180.967 56.488C180.967 53.5387 180.183 51.28 178.615 49.712C177.085 48.1067 175.199 47.304 172.959 47.304C170.719 47.304 168.834 48.1067 167.303 49.712C165.81 51.28 165.063 53.5387 165.063 56.488C165.063 59.4373 165.791 61.7147 167.247 63.32C168.741 64.888 170.607 65.672 172.847 65.672ZM212.814 40.528C216.51 40.528 219.497 41.704 221.774 44.056C224.051 46.3707 225.19 49.6187 225.19 53.8V72H217.35V54.864C217.35 52.4 216.734 50.5147 215.502 49.208C214.27 47.864 212.59 47.192 210.462 47.192C208.297 47.192 206.579 47.864 205.31 49.208C204.078 50.5147 203.462 52.4 203.462 54.864V72H195.622V40.976H203.462V44.84C204.507 43.496 205.833 42.4507 207.438 41.704C209.081 40.92 210.873 40.528 212.814 40.528ZM237.462 37.28C236.08 37.28 234.923 36.8507 233.99 35.992C233.094 35.096 232.646 33.9947 232.646 32.688C232.646 31.3813 233.094 30.2987 233.99 29.44C234.923 28.544 236.08 28.096 237.462 28.096C238.843 28.096 239.982 28.544 240.878 29.44C241.811 30.2987 242.278 31.3813 242.278 32.688C242.278 33.9947 241.811 35.096 240.878 35.992C239.982 36.8507 238.843 37.28 237.462 37.28ZM241.326 40.976V72H233.486V40.976H241.326ZM259.04 47.416V62.424C259.04 63.4693 259.282 64.2347 259.768 64.72C260.29 65.168 261.149 65.392 262.344 65.392H265.984V72H261.056C254.448 72 251.144 68.7893 251.144 62.368V47.416H247.448V40.976H251.144V33.304H259.04V40.976H265.984V47.416H259.04ZM286.238 72.504C283.252 72.504 280.564 71.8507 278.174 70.544C275.785 69.2 273.9 67.3147 272.518 64.888C271.174 62.4613 270.502 59.6613 270.502 56.488C270.502 53.3147 271.193 50.5147 272.574 48.088C273.993 45.6613 275.916 43.7947 278.342 42.488C280.769 41.144 283.476 40.472 286.462 40.472C289.449 40.472 292.156 41.144 294.582 42.488C297.009 43.7947 298.913 45.6613 300.294 48.088C301.713 50.5147 302.422 53.3147 302.422 56.488C302.422 59.6613 301.694 62.4613 300.238 64.888C298.82 67.3147 296.878 69.2 294.414 70.544C291.988 71.8507 289.262 72.504 286.238 72.504ZM286.238 65.672C287.657 65.672 288.982 65.336 290.214 64.664C291.484 63.9547 292.492 62.9093 293.238 61.528C293.985 60.1467 294.358 58.4667 294.358 56.488C294.358 53.5387 293.574 51.28 292.006 49.712C290.476 48.1067 288.59 47.304 286.35 47.304C284.11 47.304 282.225 48.1067 280.694 49.712C279.201 51.28 278.454 53.5387 278.454 56.488C278.454 59.4373 279.182 61.7147 280.638 63.32C282.132 64.888 283.998 65.672 286.238 65.672ZM316.853 45.792C317.861 44.1493 319.168 42.8613 320.773 41.928C322.416 40.9947 324.283 40.528 326.373 40.528V48.76H324.301C321.837 48.76 319.971 49.3387 318.701 50.496C317.469 51.6533 316.853 53.6693 316.853 56.544V72H309.013V40.976H316.853V45.792ZM330.478 56.376C330.478 53.24 331.094 50.4587 332.326 48.032C333.595 45.6053 335.294 43.7387 337.422 42.432C339.587 41.1253 341.995 40.472 344.646 40.472C346.961 40.472 348.977 40.9387 350.694 41.872C352.449 42.8053 353.849 43.9813 354.894 45.4V40.976H362.79V72H354.894V67.464C353.886 68.92 352.486 70.1333 350.694 71.104C348.939 72.0373 346.905 72.504 344.59 72.504C341.977 72.504 339.587 71.832 337.422 70.488C335.294 69.144 333.595 67.2587 332.326 64.832C331.094 62.368 330.478 59.5493 330.478 56.376ZM354.894 56.488C354.894 54.584 354.521 52.96 353.774 51.616C353.027 50.2347 352.019 49.1893 350.75 48.48C349.481 47.7333 348.118 47.36 346.662 47.36C345.206 47.36 343.862 47.7147 342.63 48.424C341.398 49.1333 340.39 50.1787 339.606 51.56C338.859 52.904 338.486 54.5093 338.486 56.376C338.486 58.2427 338.859 59.8853 339.606 61.304C340.39 62.6853 341.398 63.7493 342.63 64.496C343.899 65.2427 345.243 65.616 346.662 65.616C348.118 65.616 349.481 65.2613 350.75 64.552C352.019 63.8053 353.027 62.76 353.774 61.416C354.521 60.0347 354.894 58.392 354.894 56.488Z" fill="#E0E0E0"/>
</svg>
