<svg width="67" height="58" viewBox="0 0 67 58" fill="none" xmlns="http://www.w3.org/2000/svg">
<path d="M25.4096 26.9458H28.7239C29.4478 26.9458 30.0545 26.7316 30.5442 26.3031C31.0338 25.8747 31.2787 25.3438 31.2787 24.7104V21.8104C31.2787 21.1771 31.0338 20.6462 30.5442 20.2177C30.0545 19.7892 29.4478 19.575 28.7239 19.575H24.1668C23.8169 19.575 23.5108 19.6757 23.2485 19.8771C22.9861 20.0785 22.8549 20.3485 22.8549 20.6872V30.8482C22.8549 31.1869 22.9861 31.4569 23.2485 31.6583C23.5108 31.8597 23.8169 31.9604 24.1668 31.9604C24.535 31.9604 24.8342 31.8456 25.0644 31.616C25.2946 31.3865 25.4096 31.1186 25.4096 30.8125V26.9458ZM25.4096 24.7104V21.8104H28.7239V24.7104H25.4096ZM40.1168 31.9604C40.8073 31.9604 41.4057 31.7462 41.912 31.3177C42.4184 30.8893 42.6715 30.3584 42.6715 29.725V21.8104C42.6715 21.1771 42.4184 20.6462 41.912 20.2177C41.4057 19.7892 40.8073 19.575 40.1168 19.575H35.6287C35.2788 19.575 34.9727 19.6757 34.7104 19.8771C34.448 20.0785 34.3168 20.3476 34.3168 20.6845V30.7905C34.3168 31.1274 34.448 31.4066 34.7104 31.6281C34.9727 31.8497 35.2788 31.9604 35.6287 31.9604H40.1168ZM36.8715 29.725V21.8104H40.1168V29.725H36.8715ZM48.6096 26.9458H50.8192C51.1874 26.9458 51.4866 26.831 51.7168 26.6015C51.9469 26.3719 52.062 26.104 52.062 25.7979C52.062 25.4757 51.9469 25.2139 51.7168 25.0125C51.4866 24.8111 51.1874 24.7104 50.8192 24.7104H48.6096V21.8104H50.8192C51.1874 21.8104 51.4866 21.6956 51.7168 21.466C51.9469 21.2365 52.062 20.9686 52.062 20.6625C52.062 20.3403 51.9469 20.0785 51.7168 19.8771C51.4866 19.6757 51.1874 19.575 50.8192 19.575H47.3668C47.0169 19.575 46.7108 19.6757 46.4485 19.8771C46.1861 20.0785 46.0549 20.3485 46.0549 20.6872V30.8482C46.0549 31.1869 46.1861 31.4569 46.4485 31.6583C46.7108 31.8597 47.0169 31.9604 47.3668 31.9604C47.735 31.9604 48.0342 31.8456 48.2644 31.616C48.4946 31.3865 48.6096 31.1186 48.6096 30.8125V26.9458ZM17.9525 45.9167C16.8477 45.9167 15.8811 45.5542 15.0525 44.8292C14.2239 44.1042 13.8096 43.2583 13.8096 42.2917V8.45834C13.8096 7.49167 14.2239 6.64584 15.0525 5.92084C15.8811 5.19584 16.8477 4.83334 17.9525 4.83334H56.6192C57.7239 4.83334 58.6906 5.19584 59.5192 5.92084C60.3477 6.64584 60.762 7.49167 60.762 8.45834V42.2917C60.762 43.2583 60.3477 44.1042 59.5192 44.8292C58.6906 45.5542 57.7239 45.9167 56.6192 45.9167H17.9525ZM17.9525 42.2917H56.6192V8.45834H17.9525V42.2917ZM9.66678 53.1667C8.56202 53.1667 7.59535 52.8042 6.76678 52.0792C5.93821 51.3542 5.52393 50.5083 5.52393 49.5417V13.8958C5.52393 13.3823 5.72359 12.9518 6.12291 12.6044C6.52229 12.257 7.01713 12.0833 7.60744 12.0833C8.1978 12.0833 8.68861 12.257 9.07988 12.6044C9.47115 12.9518 9.66678 13.3823 9.66678 13.8958V49.5417H50.4049C50.9918 49.5417 51.4837 49.7164 51.8808 50.0658C52.2778 50.4152 52.4763 50.8482 52.4763 51.3647C52.4763 51.8813 52.2778 52.3108 51.8808 52.6531C51.4837 52.9955 50.9918 53.1667 50.4049 53.1667H9.66678Z" fill="#E6300B"/>
</svg>
